# xmcd CD database file
#
# Track frame offsets:
#	150
#	20611
#	41829
#	56909
#	73995
#	91853
#	111572
#	128996
#	148406
#	163704
#
# Disc length: 2435 seconds
#
# Revision: 0
# Processed by: cddbd v1.5PL3 Copyright (c) Steve Scherf et al.
# Submitted via: Feurio! 1.67 - http://www.feurio.com
#
DISCID=a009810a
DTITLE=MARCO ANTONIO SOLIS - Más de mi alma
DYEAR=1900
DGENRE=
TTITLE0=Cuando te acuerdes de mí
TTITLE1=O me voy o te vas
TTITLE2=En desventaja
TTITLE3=Resignación
TTITLE4=Boca de ángel
TTITLE5=Tu hombre perfecto
TTITLE6=Fue mejor así
TTITLE7=Sé que me va a dejar
TTITLE8=Mujeres solitas
TTITLE9=Donde estará mi primavera
EXTD=
EXTT0=
EXTT1=
EXTT2=
EXTT3=
EXTT4=
EXTT5=
EXTT6=
EXTT7=
EXTT8=
EXTT9=
PLAYORDER=
